<svg id="export" xmlns="http://www.w3.org/2000/svg" width="15" height="15" viewBox="0 0 15 15">
  <g id="Group_696" data-name="Group 696" transform="translate(6.439 0)">
    <g id="Group_695" data-name="Group 695">
      <path id="Path_360" data-name="Path 360" d="M228.192.14A.471.471,0,0,0,227.818,0l-3.646.332a.469.469,0,0,0-.29.8l.995.995L219.905,7.1a.469.469,0,0,0,0,.663l.663.663a.469.469,0,0,0,.664,0L226.2,3.455l.995.995a.471.471,0,0,0,.491.11.476.476,0,0,0,.172-.11A.463.463,0,0,0,228,4.16l.332-3.646A.471.471,0,0,0,228.192.14Z" transform="translate(-219.768 -0.002)" fill="#001839"/>
    </g>
  </g>
  <g id="Group_698" data-name="Group 698">
    <g id="Group_697" data-name="Group 697">
      <path id="Path_361" data-name="Path 361" d="M13.125,5.625v7.5H1.875V1.875h7.5V0H.938A.937.937,0,0,0,0,.938V14.063A.937.937,0,0,0,.938,15H14.063A.938.938,0,0,0,15,14.063V5.625Z" fill="#001839"/>
    </g>
  </g>
</svg>
