<svg id="logo_googleg_48dp" xmlns="http://www.w3.org/2000/svg" width="14.76" height="14.76" viewBox="0 0 14.76 14.76">
  <path id="Shape" d="M16.085,8.873a8.484,8.484,0,0,0-.134-1.51H9v2.855h3.972A3.4,3.4,0,0,1,11.5,12.446V14.3h2.385a7.2,7.2,0,0,0,2.2-5.424Z" transform="translate(-1.62 -1.326)" fill="#4285f4" fill-rule="evenodd"/>
  <path id="Shape-2" data-name="Shape" d="M7.552,16.688A7.046,7.046,0,0,0,12.436,14.9l-2.385-1.852A4.452,4.452,0,0,1,3.423,10.71H.957v1.912a7.377,7.377,0,0,0,6.595,4.066Z" transform="translate(-0.172 -1.928)" fill="#34a853" fill-rule="evenodd"/>
  <path id="Shape-3" data-name="Shape" d="M3.251,9.675a4.363,4.363,0,0,1,0-2.8V4.958H.785a7.389,7.389,0,0,0,0,6.628L3.251,9.675Z" transform="translate(0 -0.893)" fill="#fbbc05" fill-rule="evenodd"/>
  <path id="Shape-4" data-name="Shape" d="M7.552,2.935a3.987,3.987,0,0,1,2.821,1.1L12.49,1.922A7.092,7.092,0,0,0,7.552,0,7.377,7.377,0,0,0,.957,4.066L3.423,5.978A4.4,4.4,0,0,1,7.552,2.935Z" transform="translate(-0.172)" fill="#ea4335" fill-rule="evenodd"/>
  <path id="Shape-5" data-name="Shape" d="M0,0H14.76V14.76H0Z" fill="none" fill-rule="evenodd"/>
</svg>
