<svg xmlns="http://www.w3.org/2000/svg" viewBox="0 0 302.33 302.34"><defs><style>.cls-1{fill:#f6f3e6;}.cls-2{fill:#13988a;}</style></defs><g id="Layer_2" data-name="Layer 2"><g id="Layer_1-2" data-name="Layer 1"><circle class="cls-1" cx="151.17" cy="151.17" r="134.45"/><path class="cls-2" d="M151.17,0A151.17,151.17,0,1,0,302.33,151.17,151.17,151.17,0,0,0,151.17,0Zm81.47,238.93c-7.21,5.15-14.23,8.48-26.26,8.7h-2.23a92.31,92.31,0,0,1-49.52-15.24l-21.74-14.19c-2.91-.91-4.66,1.55-3.19,4.43l13.22,25.24h0c2.73,4.72,2.63,7.73.26,11.47a10.23,10.23,0,0,1-6,4.39c-5.18,1.38-12.63,1.67-19.25,1.49a10.26,10.26,0,0,1-9.67-7.46c-1-3.65-1.53-5.51-2.55-9.19a248.61,248.61,0,0,1-6.62-32.75,41.17,41.17,0,0,0-1.25-6.56c-.92-3.22-5.79,2.16-10.5-.09-7.39-4.21-5.93-12,2-17.07,3-1.94,3.58-3.18,3.4-6-.13-1.94-.76-5.48-1.55-11.43a485.94,485.94,0,0,1-3.41-93.81l1-18.48c1.45-11.64,4.7-19.91,12.93-26.23,7.42-5.69,15.27-6.77,22.51-3.25,5.57,2.71,5.83,10.34,4.44,17.78-.54,2.89-1,5.79-1.36,8.71-2.35,21.59-3,27.43-4.72,43.48-3.11,24.38-3.78,54.74-4.73,69.37-.16,2.37,2.23,5.18,4.8,2.58,28.95-19.53,53.86-45.2,71.38-75.43a36.69,36.69,0,0,1,2.06-3.2c4.46-6.11,11.41-2.88,11.41-2.88,16.62,5.81,16.1,30.67,2.48,42.57a269,269,0,0,1-64.49,52.37l-10,6a1.55,1.55,0,0,0,.26,2.67c.2.11.5.28.87.51a93.14,93.14,0,0,0,72.42,11.79,48.25,48.25,0,0,0,18.5-9.53A12.36,12.36,0,0,1,246.08,203C251,215.6,246,229.39,232.64,238.93Z"/></g></g></svg>