<svg xmlns="http://www.w3.org/2000/svg" width="12.615" height="14" viewBox="0 0 12.615 14">
  <g id="Group_1611" data-name="Group 1611" transform="translate(-980.743 -21)">
    <path id="Path_931" data-name="Path 931" d="M86.536,13.8h0c-.016.016-.033.031-.051.046l-.025.019-.03.022L86.4,13.9l-.028.017-.032.015-.03.014-.031.011-.033.012-.032.008-.035.008-.037.006-.031,0a.7.7,0,0,1-.138,0l-.031,0-.037-.006-.035-.008-.032-.008-.033-.012-.031-.011-.03-.014-.032-.015-.028-.017-.031-.019-.03-.022-.025-.019c-.018-.015-.035-.03-.051-.046h0c-.283-.038-.2-2.145-.2-2.185V.7a.7.7,0,0,1,1.4,0V11.61l2.705-2.705a.7.7,0,0,1,.99.99Z" transform="translate(902.717 21)" fill="#001839"/>
    <path id="Path_932" data-name="Path 932" d="M5.105.2h0c.016-.016.033-.031.051-.046L5.181.14l.03-.022L5.242.1,5.27.083,5.3.067l.03-.014L5.364.042,5.4.03,5.429.022,5.463.013,5.5.008l.031,0a.7.7,0,0,1,.138,0l.031,0,.037.006.035.008L5.8.03l.033.012.031.011L5.9.067,5.93.083,5.958.1l.031.019.03.022.025.019c.018.015.035.03.051.046h0c.283.038.2,2.145.2,2.185V13.3a.7.7,0,0,1-1.4,0V2.39L2.195,5.095a.7.7,0,0,1-.99-.99Z" transform="translate(979.743 21)" fill="#001839"/>
  </g>
</svg>
