<svg xmlns="http://www.w3.org/2000/svg" width="12.023" height="12.65" viewBox="0 0 12.023 12.65">
  <g id="delete" transform="translate(0 0)" color="black">
    <path id="Path_945" data-name="Path 945" d="M52.926-474.689a1.271,1.271,0,0,0-.587.31,1.325,1.325,0,0,0-.4,1.134v.367l-1.684.009c-1.643.009-1.69.012-1.788.069a.45.45,0,0,0-.223.425.443.443,0,0,0,.223.359c.09.064.127.067.555.067.341,0,.463.009.472.035s.13,1.855.272,4.074c.165,2.526.278,4.123.307,4.267a1.9,1.9,0,0,0,1.374,1.452,18.294,18.294,0,0,0,2.821.052c2.96,0,2.78.012,3.229-.22a1.877,1.877,0,0,0,.981-1.377c.017-.11.142-2,.278-4.2s.252-4.024.257-4.045.13-.035.472-.035c.428,0,.466,0,.555-.067a.446.446,0,0,0,.223-.344.452.452,0,0,0-.214-.431l-.11-.069-1.681-.009-1.684-.009-.012-.44a1.621,1.621,0,0,0-.078-.608,1.321,1.321,0,0,0-.746-.723c-.162-.061-.211-.064-1.412-.069A12.944,12.944,0,0,0,52.926-474.689Zm2.636,1.027c.084.093.084.1.084.44v.347H52.868v-.344c0-.327,0-.35.072-.434a.326.326,0,0,1,.139-.1c.035-.009.587-.012,1.23-.009l1.169,0Zm2.514,1.805c0,.038-.11,1.857-.246,4.045-.168,2.7-.263,4.024-.289,4.126a1,1,0,0,1-.631.654c-.1.029-.7.038-2.682.038h-2.56l-.159-.075a1.249,1.249,0,0,1-.263-.165,1.167,1.167,0,0,1-.3-.544c-.017-.119-.477-7.867-.477-8.04v-.1h7.609Z" transform="translate(-48.246 474.719)" fill="#6e6e6e"/>
    <path id="Path_946" data-name="Path 946" d="M176.717-324.936a.85.85,0,0,0-.156.148c-.061.081-.061.09-.061,2.711s0,2.63.061,2.711a.46.46,0,0,0,.775,0c.061-.081.061-.09.061-2.711s0-2.63-.061-2.711a.473.473,0,0,0-.388-.211A.4.4,0,0,0,176.717-324.936Z" transform="translate(-172.79 329.332)" fill="#6e6e6e"/>
    <path id="Path_947" data-name="Path 947" d="M240.717-324.936a.85.85,0,0,0-.156.148c-.061.081-.061.09-.061,2.711s0,2.63.061,2.711a.46.46,0,0,0,.775,0c.061-.081.061-.09.061-2.711s0-2.63-.061-2.711a.473.473,0,0,0-.388-.211A.4.4,0,0,0,240.717-324.936Z" transform="translate(-234.938 329.332)" fill="#6e6e6e"/>
    <path id="Path_948" data-name="Path 948" d="M304.717-324.936a.849.849,0,0,0-.156.148c-.061.081-.061.09-.061,2.711s0,2.63.061,2.711a.46.46,0,0,0,.775,0c.061-.081.061-.09.061-2.711s0-2.63-.061-2.711a.473.473,0,0,0-.388-.211A.4.4,0,0,0,304.717-324.936Z" transform="translate(-297.086 329.332)" fill="#6e6e6e"/>
  </g>
</svg>
