<svg xmlns="http://www.w3.org/2000/svg" xmlns:xlink="http://www.w3.org/1999/xlink" version="1.1" style="enable-background:new 0 0 333 333;" xml:space="preserve" width="333" height="210"><rect id="backgroundrect" width="100%" height="100%" x="0" y="0" fill="none" stroke="none" class="" style=""/>



















<g class="currentLayer" style=""><title>Layer 1</title><g id="svg_4" class="selected" fill-opacity="1" fill="#001839">
	<g id="svg_5" fill="#001839">
		<path d="M230,22.545978546142578 H10 c-5.5,0 -10,4.5 -10,10 s4.5,10 10,10 h220 c5.5,0 10,-4.5 10,-10 S235.5,22.545978546142578 230,22.545978546142578 z" id="svg_6" fill="#001839"/>
	</g>
</g><g id="svg_7" class="selected" fill-opacity="1" fill="#001839">
	<g id="svg_8" fill="#001839">
		<path d="M323,106.54597854614258 H10 c-5.5,0 -10,4.5 -10,10 s4.5,10 10,10 h313 c5.5,0 10,-4.5 10,-10 S328.5,106.54597854614258 323,106.54597854614258 z" id="svg_9" fill="#001839"/>
	</g>
</g><g id="svg_10" class="selected" fill-opacity="1" fill="#001839">
	<g id="svg_11" fill="#001839">
		<path d="M151,189.54597854614258 H10 c-5.5,0 -10,4.5 -10,10 s4.5,10 10,10 h141 c5.5,0 10,-4.5 10,-10 S156.5,189.54597854614258 151,189.54597854614258 z" id="svg_12" fill="#001839"/>
	</g>
</g><g id="svg_13" class="selected" fill-opacity="1" fill="#001839">
</g><g id="svg_14" class="selected" fill-opacity="1" fill="#001839">
</g><g id="svg_15" class="selected" fill-opacity="1" fill="#001839">
</g><g id="svg_16" class="selected" fill-opacity="1" fill="#001839">
</g><g id="svg_17" class="selected" fill-opacity="1" fill="#001839">
</g><g id="svg_18" class="selected" fill-opacity="1" fill="#001839">
</g><g id="svg_19" class="selected" fill-opacity="1" fill="#001839">
</g><g id="svg_20" class="selected" fill-opacity="1" fill="#001839">
</g><g id="svg_21" class="selected" fill-opacity="1" fill="#001839">
</g><g id="svg_22" class="selected" fill-opacity="1" fill="#001839">
</g><g id="svg_23" class="selected" fill-opacity="1" fill="#001839">
</g><g id="svg_24" class="selected" fill-opacity="1" fill="#001839">
</g><g id="svg_25" class="selected" fill-opacity="1" fill="#001839">
</g><g id="svg_26" class="selected" fill-opacity="1" fill="#001839">
</g><g id="svg_27" class="selected" fill-opacity="1" fill="#001839">
</g></g></svg>