<svg xmlns="http://www.w3.org/2000/svg" width="14.5" height="14.5" viewBox="0 0 14.5 14.5">
  <g id="analytics_5_" data-name="analytics (5)" transform="translate(0.25 0.25)">
    <g id="Group_667" data-name="Group 667" transform="translate(0 13.417)">
      <g id="Group_666" data-name="Group 666">
        <path id="Path_339" data-name="Path 339" d="M13.708,490.667H.292a.292.292,0,1,0,0,.583H13.708a.292.292,0,1,0,0-.583Z" transform="translate(0 -490.667)" fill="#001839"/>
        <path id="Path_339_-_Outline" data-name="Path 339 - Outline" d="M.292,490.417H13.708a.542.542,0,1,1,0,1.083H.292a.542.542,0,1,1,0-1.083ZM13.708,491a.042.042,0,1,0,0-.083H.292a.042.042,0,1,0,0,.083Z" transform="translate(0 -490.667)" fill="#001839"/>
      </g>
    </g>
    <g id="Group_669" data-name="Group 669" transform="translate(0.583 9.917)">
      <g id="Group_668" data-name="Group 668">
        <path id="Path_340" data-name="Path 340" d="M23.375,362.667h-1.75a.292.292,0,0,0-.292.292v3.5a.292.292,0,0,0,.292.292h1.75a.292.292,0,0,0,.292-.292v-3.5A.292.292,0,0,0,23.375,362.667Zm-.292,3.5H21.916V363.25h1.167v2.917Z" transform="translate(-21.333 -362.667)" fill="#001839"/>
        <path id="Path_340_-_Outline" data-name="Path 340 - Outline" d="M21.625,362.417h1.75a.542.542,0,0,1,.542.542v3.5a.542.542,0,0,1-.542.542h-1.75a.542.542,0,0,1-.542-.542v-3.5A.542.542,0,0,1,21.625,362.417Zm1.75,4.083a.042.042,0,0,0,.042-.042v-3.5a.042.042,0,0,0-.042-.042h-1.75a.042.042,0,0,0-.042.042v3.5a.042.042,0,0,0,.042.042ZM21.666,363h1.667v3.417H21.666Zm1.167.5h-.667v2.417h.667Z" transform="translate(-21.333 -362.667)" fill="#001839"/>
      </g>
    </g>
    <g id="Group_671" data-name="Group 671" transform="translate(4.083 7)">
      <g id="Group_670" data-name="Group 670">
        <path id="Path_341" data-name="Path 341" d="M151.375,256h-1.75a.292.292,0,0,0-.292.292v6.417a.292.292,0,0,0,.292.292h1.75a.292.292,0,0,0,.292-.292v-6.417A.292.292,0,0,0,151.375,256Zm-.292,6.417h-1.167v-5.833h1.167Z" transform="translate(-149.333 -256)" fill="#001839"/>
        <path id="Path_341_-_Outline" data-name="Path 341 - Outline" d="M149.625,255.75h1.75a.542.542,0,0,1,.542.542v6.417a.542.542,0,0,1-.542.542h-1.75a.542.542,0,0,1-.542-.542v-6.417A.542.542,0,0,1,149.625,255.75Zm1.75,7a.042.042,0,0,0,.042-.042v-6.417a.042.042,0,0,0-.042-.042h-1.75a.042.042,0,0,0-.042.042v6.417a.042.042,0,0,0,.042.042Zm-1.708-6.417h1.667v6.333h-1.667Zm1.167.5h-.667v5.333h.667Z" transform="translate(-149.333 -256)" fill="#001839"/>
      </g>
    </g>
    <g id="Group_673" data-name="Group 673" transform="translate(7.583 8.167)">
      <g id="Group_672" data-name="Group 672">
        <path id="Path_342" data-name="Path 342" d="M279.375,298.667h-1.75a.292.292,0,0,0-.292.292v5.25a.292.292,0,0,0,.292.292h1.75a.292.292,0,0,0,.292-.292v-5.25A.292.292,0,0,0,279.375,298.667Zm-.292,5.25h-1.167V299.25h1.167Z" transform="translate(-277.333 -298.667)" fill="#001839"/>
        <path id="Path_342_-_Outline" data-name="Path 342 - Outline" d="M277.625,298.417h1.75a.542.542,0,0,1,.542.542v5.25a.542.542,0,0,1-.542.542h-1.75a.542.542,0,0,1-.542-.542v-5.25A.542.542,0,0,1,277.625,298.417Zm1.75,5.833a.042.042,0,0,0,.042-.042v-5.25a.042.042,0,0,0-.042-.042h-1.75a.042.042,0,0,0-.042.042v5.25a.042.042,0,0,0,.042.042ZM277.666,299h1.667v5.167h-1.667Zm1.167.5h-.667v4.167h.667Z" transform="translate(-277.333 -298.667)" fill="#001839"/>
      </g>
    </g>
    <g id="Group_675" data-name="Group 675" transform="translate(11.083 4.667)">
      <g id="Group_674" data-name="Group 674">
        <path id="Path_343" data-name="Path 343" d="M407.375,170.667h-1.75a.292.292,0,0,0-.292.292v8.75a.292.292,0,0,0,.292.292h1.75a.292.292,0,0,0,.292-.292v-8.75A.292.292,0,0,0,407.375,170.667Zm-.292,8.75h-1.167V171.25h1.167Z" transform="translate(-405.333 -170.667)" fill="#001839"/>
        <path id="Path_343_-_Outline" data-name="Path 343 - Outline" d="M405.625,170.417h1.75a.542.542,0,0,1,.542.542v8.75a.542.542,0,0,1-.542.542h-1.75a.542.542,0,0,1-.542-.542v-8.75A.542.542,0,0,1,405.625,170.417Zm1.75,9.333a.042.042,0,0,0,.042-.042v-8.75a.042.042,0,0,0-.042-.042h-1.75a.042.042,0,0,0-.042.042v8.75a.042.042,0,0,0,.042.042ZM405.666,171h1.667v8.667h-1.667Zm1.167.5h-.667v7.667h.667Z" transform="translate(-405.333 -170.667)" fill="#001839"/>
      </g>
    </g>
    <g id="Group_677" data-name="Group 677" transform="translate(0.583 5.25)">
      <g id="Group_676" data-name="Group 676">
        <path id="Path_344" data-name="Path 344" d="M22.5,192a1.167,1.167,0,1,0,1.167,1.167A1.168,1.168,0,0,0,22.5,192Zm0,1.75a.583.583,0,1,1,.583-.583A.584.584,0,0,1,22.5,193.75Z" transform="translate(-21.333 -192)" fill="#001839"/>
        <path id="Path_344_-_Outline" data-name="Path 344 - Outline" d="M22.5,191.75a1.417,1.417,0,1,1-1.417,1.417A1.418,1.418,0,0,1,22.5,191.75Zm0,2.333a.917.917,0,1,0-.917-.917A.918.918,0,0,0,22.5,194.083Zm0-1.75a.833.833,0,1,1-.833.833A.834.834,0,0,1,22.5,192.333Zm0,1.167a.333.333,0,1,0-.333-.333A.334.334,0,0,0,22.5,193.5Z" transform="translate(-21.333 -192)" fill="#001839"/>
      </g>
    </g>
    <g id="Group_679" data-name="Group 679" transform="translate(4.083 2.333)">
      <g id="Group_678" data-name="Group 678">
        <path id="Path_345" data-name="Path 345" d="M150.5,85.333a1.167,1.167,0,1,0,1.167,1.167A1.168,1.168,0,0,0,150.5,85.333Zm0,1.75a.583.583,0,1,1,.583-.583A.584.584,0,0,1,150.5,87.083Z" transform="translate(-149.333 -85.333)" fill="#001839"/>
        <path id="Path_345_-_Outline" data-name="Path 345 - Outline" d="M150.5,85.083a1.417,1.417,0,1,1-1.417,1.417A1.418,1.418,0,0,1,150.5,85.083Zm0,2.333a.917.917,0,1,0-.917-.917A.918.918,0,0,0,150.5,87.416Zm0-1.75a.833.833,0,1,1-.833.833A.834.834,0,0,1,150.5,85.666Zm0,1.167a.333.333,0,1,0-.333-.333A.334.334,0,0,0,150.5,86.833Z" transform="translate(-149.333 -85.333)" fill="#001839"/>
      </g>
    </g>
    <g id="Group_681" data-name="Group 681" transform="translate(7.583 3.5)">
      <g id="Group_680" data-name="Group 680">
        <path id="Path_346" data-name="Path 346" d="M278.5,128a1.167,1.167,0,1,0,1.167,1.167A1.168,1.168,0,0,0,278.5,128Zm0,1.75a.583.583,0,1,1,.583-.583A.584.584,0,0,1,278.5,129.75Z" transform="translate(-277.333 -128)" fill="#001839"/>
        <path id="Path_346_-_Outline" data-name="Path 346 - Outline" d="M278.5,127.75a1.417,1.417,0,1,1-1.417,1.417A1.418,1.418,0,0,1,278.5,127.75Zm0,2.333a.917.917,0,1,0-.917-.917A.918.918,0,0,0,278.5,130.083Zm0-1.75a.833.833,0,1,1-.833.833A.834.834,0,0,1,278.5,128.333Zm0,1.167a.333.333,0,1,0-.333-.333A.334.334,0,0,0,278.5,129.5Z" transform="translate(-277.333 -128)" fill="#001839"/>
      </g>
    </g>
    <g id="Group_683" data-name="Group 683" transform="translate(11.083)">
      <g id="Group_682" data-name="Group 682">
        <path id="Path_347" data-name="Path 347" d="M406.5,0a1.167,1.167,0,1,0,1.167,1.167A1.168,1.168,0,0,0,406.5,0Zm0,1.75a.583.583,0,1,1,.583-.583A.584.584,0,0,1,406.5,1.75Z" transform="translate(-405.333)" fill="#001839"/>
        <path id="Path_347_-_Outline" data-name="Path 347 - Outline" d="M406.5-.25a1.417,1.417,0,1,1-1.417,1.417A1.418,1.418,0,0,1,406.5-.25Zm0,2.333a.917.917,0,1,0-.917-.917A.918.918,0,0,0,406.5,2.083Zm0-1.75a.833.833,0,1,1-.833.833A.834.834,0,0,1,406.5.333Zm0,1.167a.333.333,0,1,0-.333-.333A.334.334,0,0,0,406.5,1.5Z" transform="translate(-405.333)" fill="#001839"/>
      </g>
    </g>
    <g id="Group_685" data-name="Group 685" transform="translate(9.077 1.493)">
      <g id="Group_684" data-name="Group 684">
        <path id="Path_348" data-name="Path 348" d="M334.724,54.693a.292.292,0,0,0-.412,0l-2.263,2.263a.292.292,0,0,0,.412.412l2.263-2.263A.292.292,0,0,0,334.724,54.693Z" transform="translate(-331.963 -54.608)" fill="#001839"/>
        <path id="Path_348_-_Outline" data-name="Path 348 - Outline" d="M334.518,54.358a.542.542,0,0,1,.383.925l-2.263,2.263a.542.542,0,0,1-.766-.766l2.263-2.263A.538.538,0,0,1,334.518,54.358ZM332.255,57.2a.04.04,0,0,0,.029-.012l2.263-2.263a.042.042,0,0,0-.059-.059l-2.263,2.263a.041.041,0,0,0,.03.071Z" transform="translate(-331.963 -54.608)" fill="#001839"/>
      </g>
    </g>
    <g id="Group_687" data-name="Group 687" transform="translate(5.8 3.447)">
      <g id="Group_686" data-name="Group 686">
        <path id="Path_349" data-name="Path 349" d="M214.353,126.624l-1.874-.534a.292.292,0,0,0-.16.561l1.874.534a.292.292,0,0,0,.16-.561Z" transform="translate(-212.108 -126.078)" fill="#001839"/>
        <path id="Path_349_-_Outline" data-name="Path 349 - Outline" d="M214.273,127.446a.544.544,0,0,1-.148-.02l-1.874-.535a.542.542,0,1,1,.3-1.042l1.873.534a.542.542,0,0,1,.372.67A.544.544,0,0,1,214.273,127.446Zm-1.876-1.118a.04.04,0,0,0-.037.03.042.042,0,0,0,.028.052l1.873.534a.043.043,0,0,0,.052-.029.04.04,0,0,0,0-.031.041.041,0,0,0-.025-.02l-1.874-.534Z" transform="translate(-212.108 -126.078)" fill="#001839"/>
      </g>
    </g>
    <g id="Group_689" data-name="Group 689" transform="translate(2.076 3.754)">
      <g id="Group_688" data-name="Group 688">
        <path id="Path_350" data-name="Path 350" d="M78.653,137.383a.292.292,0,0,0-.41-.047l-2.2,1.753a.292.292,0,0,0,.363.457l2.2-1.753A.291.291,0,0,0,78.653,137.383Z" transform="translate(-75.935 -137.273)" fill="#001839"/>
        <path id="Path_350_-_Outline" data-name="Path 350 - Outline" d="M78.425,137.023h0a.542.542,0,0,1,.338.965l-2.2,1.754a.549.549,0,0,1-.337.118.542.542,0,0,1-.338-.965l2.2-1.754A.545.545,0,0,1,78.425,137.023Zm-2.2,2.336a.044.044,0,0,0,.027-.01l2.2-1.752a.042.042,0,0,0-.052-.065l-2.2,1.753a.042.042,0,0,0-.016.028.04.04,0,0,0,.009.03A.042.042,0,0,0,76.227,139.36Z" transform="translate(-75.935 -137.273)" fill="#001839"/>
      </g>
    </g>
  </g>
</svg>
