<svg id="analytics_5_" data-name="analytics (5)" xmlns="http://www.w3.org/2000/svg" width="14" height="14" viewBox="0 0 14 14">
  <g id="Group_667" data-name="Group 667" transform="translate(0 13.417)">
    <g id="Group_666" data-name="Group 666">
      <path id="Path_339" data-name="Path 339" d="M13.708,490.667H.292a.292.292,0,1,0,0,.583H13.708a.292.292,0,1,0,0-.583Z" transform="translate(0 -490.667)" fill="#001839"/>
    </g>
  </g>
  <g id="Group_669" data-name="Group 669" transform="translate(0.583 9.917)">
    <g id="Group_668" data-name="Group 668">
      <path id="Path_340" data-name="Path 340" d="M23.375,362.667h-1.75a.292.292,0,0,0-.292.292v3.5a.292.292,0,0,0,.292.292h1.75a.292.292,0,0,0,.292-.292v-3.5A.292.292,0,0,0,23.375,362.667Zm-.292,3.5H21.916V363.25h1.167v2.917Z" transform="translate(-21.333 -362.667)" fill="#001839"/>
    </g>
  </g>
  <g id="Group_671" data-name="Group 671" transform="translate(4.083 7)">
    <g id="Group_670" data-name="Group 670">
      <path id="Path_341" data-name="Path 341" d="M151.375,256h-1.75a.292.292,0,0,0-.292.292v6.417a.292.292,0,0,0,.292.292h1.75a.292.292,0,0,0,.292-.292v-6.417A.292.292,0,0,0,151.375,256Zm-.292,6.417h-1.167v-5.833h1.167Z" transform="translate(-149.333 -256)" fill="#001839"/>
    </g>
  </g>
  <g id="Group_673" data-name="Group 673" transform="translate(7.583 8.167)">
    <g id="Group_672" data-name="Group 672">
      <path id="Path_342" data-name="Path 342" d="M279.375,298.667h-1.75a.292.292,0,0,0-.292.292v5.25a.292.292,0,0,0,.292.292h1.75a.292.292,0,0,0,.292-.292v-5.25A.292.292,0,0,0,279.375,298.667Zm-.292,5.25h-1.167V299.25h1.167Z" transform="translate(-277.333 -298.667)" fill="#001839"/>
    </g>
  </g>
  <g id="Group_675" data-name="Group 675" transform="translate(11.083 4.667)">
    <g id="Group_674" data-name="Group 674">
      <path id="Path_343" data-name="Path 343" d="M407.375,170.667h-1.75a.292.292,0,0,0-.292.292v8.75a.292.292,0,0,0,.292.292h1.75a.292.292,0,0,0,.292-.292v-8.75A.292.292,0,0,0,407.375,170.667Zm-.292,8.75h-1.167V171.25h1.167Z" transform="translate(-405.333 -170.667)" fill="#001839"/>
    </g>
  </g>
  <g id="Group_677" data-name="Group 677" transform="translate(0.583 5.25)">
    <g id="Group_676" data-name="Group 676">
      <path id="Path_344" data-name="Path 344" d="M22.5,192a1.167,1.167,0,1,0,1.167,1.167A1.168,1.168,0,0,0,22.5,192Zm0,1.75a.583.583,0,1,1,.583-.583A.584.584,0,0,1,22.5,193.75Z" transform="translate(-21.333 -192)" fill="#001839"/>
    </g>
  </g>
  <g id="Group_679" data-name="Group 679" transform="translate(4.083 2.333)">
    <g id="Group_678" data-name="Group 678">
      <path id="Path_345" data-name="Path 345" d="M150.5,85.333a1.167,1.167,0,1,0,1.167,1.167A1.168,1.168,0,0,0,150.5,85.333Zm0,1.75a.583.583,0,1,1,.583-.583A.584.584,0,0,1,150.5,87.083Z" transform="translate(-149.333 -85.333)" fill="#001839"/>
    </g>
  </g>
  <g id="Group_681" data-name="Group 681" transform="translate(7.583 3.5)">
    <g id="Group_680" data-name="Group 680">
      <path id="Path_346" data-name="Path 346" d="M278.5,128a1.167,1.167,0,1,0,1.167,1.167A1.168,1.168,0,0,0,278.5,128Zm0,1.75a.583.583,0,1,1,.583-.583A.584.584,0,0,1,278.5,129.75Z" transform="translate(-277.333 -128)" fill="#001839"/>
    </g>
  </g>
  <g id="Group_683" data-name="Group 683" transform="translate(11.083)">
    <g id="Group_682" data-name="Group 682">
      <path id="Path_347" data-name="Path 347" d="M406.5,0a1.167,1.167,0,1,0,1.167,1.167A1.168,1.168,0,0,0,406.5,0Zm0,1.75a.583.583,0,1,1,.583-.583A.584.584,0,0,1,406.5,1.75Z" transform="translate(-405.333)" fill="#001839"/>
    </g>
  </g>
  <g id="Group_685" data-name="Group 685" transform="translate(9.077 1.493)">
    <g id="Group_684" data-name="Group 684">
      <path id="Path_348" data-name="Path 348" d="M334.724,54.693a.292.292,0,0,0-.412,0l-2.263,2.263a.292.292,0,0,0,.412.412l2.263-2.263A.292.292,0,0,0,334.724,54.693Z" transform="translate(-331.963 -54.608)" fill="#001839"/>
    </g>
  </g>
  <g id="Group_687" data-name="Group 687" transform="translate(5.8 3.447)">
    <g id="Group_686" data-name="Group 686">
      <path id="Path_349" data-name="Path 349" d="M214.353,126.624l-1.874-.534a.292.292,0,0,0-.16.561l1.874.534a.292.292,0,0,0,.16-.561Z" transform="translate(-212.108 -126.078)" fill="#001839"/>
    </g>
  </g>
  <g id="Group_689" data-name="Group 689" transform="translate(2.076 3.754)">
    <g id="Group_688" data-name="Group 688">
      <path id="Path_350" data-name="Path 350" d="M78.653,137.383a.292.292,0,0,0-.41-.047l-2.2,1.753a.292.292,0,0,0,.363.457l2.2-1.753A.291.291,0,0,0,78.653,137.383Z" transform="translate(-75.935 -137.273)" fill="#001839"/>
    </g>
  </g>
</svg>
