<svg xmlns="http://www.w3.org/2000/svg" width="15" height="15" viewBox="0 0 15 15"><defs><style>.a{fill:#001839;}</style></defs><path class="a" d="M7.5,0A7.5,7.5,0,1,0,15,7.5,7.5,7.5,0,0,0,7.5,0Zm0,13.929A6.429,6.429,0,1,1,13.929,7.5,6.429,6.429,0,0,1,7.5,13.929Z"/><g transform="translate(5.357 4.821)"><path class="a" d="M175.967,156.027a.535.535,0,0,0-.24-.241l-4.286-2.143a.536.536,0,0,0-.775.479v4.286a.536.536,0,0,0,.775.479l4.286-2.143A.536.536,0,0,0,175.967,156.027Zm-4.23,1.515V154.99l2.552,1.276Z" transform="translate(-170.666 -153.587)"/></g></svg>