<svg xmlns="http://www.w3.org/2000/svg" width="16.273" height="15" viewBox="0 0 16.273 15">
  <g id="table" transform="translate(0.5 0.5)">
    <path id="Path_351" data-name="Path 351" d="M13.523,14H1.75A1.751,1.751,0,0,1,0,12.25V1.75A1.752,1.752,0,0,1,1.75,0H13.523a1.752,1.752,0,0,1,1.75,1.75v10.5A1.751,1.751,0,0,1,13.523,14ZM1.75.954a.8.8,0,0,0-.8.8v10.5a.8.8,0,0,0,.8.8H13.523a.8.8,0,0,0,.8-.8V1.75a.8.8,0,0,0-.8-.8Zm0,0" transform="translate(0 0)" fill="#001839"/>
    <path id="Path_351_-_Outline" data-name="Path 351 - Outline" d="M13.523,14.5H1.75A2.253,2.253,0,0,1-.5,12.25V1.75A2.253,2.253,0,0,1,1.75-.5H13.523a2.253,2.253,0,0,1,2.25,2.25v10.5A2.253,2.253,0,0,1,13.523,14.5ZM1.75,1.454a.3.3,0,0,0-.3.3v10.5a.3.3,0,0,0,.3.3H13.523a.3.3,0,0,0,.3-.3V1.75a.3.3,0,0,0-.3-.3Z" transform="translate(0 0)" fill="#001839"/>
    <path id="Path_352" data-name="Path 352" d="M14.8,128.955H.477a.477.477,0,1,1,0-.955H14.8a.477.477,0,1,1,0,.955Zm0,0" transform="translate(0 -124.182)" fill="#001839"/>
    <path id="Path_352_-_Outline" data-name="Path 352 - Outline" d="M14.8,129.455H.477a.977.977,0,1,1,0-1.955H14.8a.977.977,0,1,1,0,1.955Z" transform="translate(0 -124.182)" fill="#001839"/>
    <path id="Path_353" data-name="Path 353" d="M14.8,235.623H.477a.477.477,0,0,1,0-.955H14.8a.477.477,0,0,1,0,.955Zm0,0" transform="translate(0 -227.668)" fill="#001839"/>
    <path id="Path_353_-_Outline" data-name="Path 353 - Outline" d="M14.8,236.123H.477a.977.977,0,0,1,0-1.955H14.8a.977.977,0,0,1,0,1.955Z" transform="translate(0 -227.668)" fill="#001839"/>
    <path id="Path_354" data-name="Path 354" d="M14.8,342.287H.477a.477.477,0,1,1,0-.955H14.8a.477.477,0,1,1,0,.955Zm0,0" transform="translate(0 -331.15)" fill="#001839"/>
    <path id="Path_354_-_Outline" data-name="Path 354 - Outline" d="M14.8,342.787H.477a.977.977,0,1,1,0-1.955H14.8a.977.977,0,1,1,0,1.955Z" transform="translate(0 -331.15)" fill="#001839"/>
    <path id="Path_355" data-name="Path 355" d="M117.809,138.182a.477.477,0,0,1-.477-.477v-9.227a.477.477,0,0,1,.955,0V137.7A.477.477,0,0,1,117.809,138.182Zm0,0" transform="translate(-113.832 -124.182)" fill="#001839"/>
    <path id="Path_355_-_Outline" data-name="Path 355 - Outline" d="M117.809,138.682a.978.978,0,0,1-.977-.977v-9.227a.977.977,0,0,1,1.955,0V137.7A.978.978,0,0,1,117.809,138.682Z" transform="translate(-113.832 -124.182)" fill="#001839"/>
    <path id="Path_356" data-name="Path 356" d="M240.477,138.182A.477.477,0,0,1,240,137.7v-9.227a.477.477,0,0,1,.955,0V137.7A.477.477,0,0,1,240.477,138.182Zm0,0" transform="translate(-232.841 -124.182)" fill="#001839"/>
    <path id="Path_356_-_Outline" data-name="Path 356 - Outline" d="M240.477,138.682a.978.978,0,0,1-.977-.977v-9.227a.977.977,0,0,1,1.955,0V137.7A.978.978,0,0,1,240.477,138.682Z" transform="translate(-232.841 -124.182)" fill="#001839"/>
    <path id="Path_357" data-name="Path 357" d="M363.145,138.182a.477.477,0,0,1-.477-.477v-9.227a.477.477,0,0,1,.955,0V137.7A.477.477,0,0,1,363.145,138.182Zm0,0" transform="translate(-351.85 -124.182)" fill="#001839"/>
    <path id="Path_357_-_Outline" data-name="Path 357 - Outline" d="M363.145,138.682a.978.978,0,0,1-.977-.977v-9.227a.977.977,0,0,1,1.955,0V137.7A.978.978,0,0,1,363.145,138.682Z" transform="translate(-351.85 -124.182)" fill="#001839"/>
  </g>
</svg>
