<svg xmlns="http://www.w3.org/2000/svg" width="15.273" height="14" viewBox="0 0 15.273 14">
  <g id="table" transform="translate(0 0)">
    <path id="Path_351" data-name="Path 351" d="M13.523,14H1.75A1.751,1.751,0,0,1,0,12.25V1.75A1.752,1.752,0,0,1,1.75,0H13.523a1.752,1.752,0,0,1,1.75,1.75v10.5A1.751,1.751,0,0,1,13.523,14ZM1.75.954a.8.8,0,0,0-.8.8v10.5a.8.8,0,0,0,.8.8H13.523a.8.8,0,0,0,.8-.8V1.75a.8.8,0,0,0-.8-.8Zm0,0" transform="translate(0 0)" fill="#001839"/>
    <path id="Path_352" data-name="Path 352" d="M14.8,128.955H.477a.477.477,0,1,1,0-.955H14.8a.477.477,0,1,1,0,.955Zm0,0" transform="translate(0 -124.182)" fill="#001839"/>
    <path id="Path_353" data-name="Path 353" d="M14.8,235.623H.477a.477.477,0,0,1,0-.955H14.8a.477.477,0,0,1,0,.955Zm0,0" transform="translate(0 -227.668)" fill="#001839"/>
    <path id="Path_354" data-name="Path 354" d="M14.8,342.287H.477a.477.477,0,1,1,0-.955H14.8a.477.477,0,1,1,0,.955Zm0,0" transform="translate(0 -331.15)" fill="#001839"/>
    <path id="Path_355" data-name="Path 355" d="M117.809,138.182a.477.477,0,0,1-.477-.477v-9.227a.477.477,0,0,1,.955,0V137.7A.477.477,0,0,1,117.809,138.182Zm0,0" transform="translate(-113.832 -124.182)" fill="#001839"/>
    <path id="Path_356" data-name="Path 356" d="M240.477,138.182A.477.477,0,0,1,240,137.7v-9.227a.477.477,0,0,1,.955,0V137.7A.477.477,0,0,1,240.477,138.182Zm0,0" transform="translate(-232.841 -124.182)" fill="#001839"/>
    <path id="Path_357" data-name="Path 357" d="M363.145,138.182a.477.477,0,0,1-.477-.477v-9.227a.477.477,0,0,1,.955,0V137.7A.477.477,0,0,1,363.145,138.182Zm0,0" transform="translate(-351.85 -124.182)" fill="#001839"/>
  </g>
</svg>
