<svg xmlns="http://www.w3.org/2000/svg" width="15" height="15" viewBox="0 0 15 15">
  <path id="film" d="M15,7.5A7.5,7.5,0,1,0,7.5,15H15V13.75H11.641A7.5,7.5,0,0,0,15,7.5Zm-3.826,5.056a1.875,1.875,0,1,1,.415-2.619A1.875,1.875,0,0,1,11.174,12.556Zm-.092-8.192a1.875,1.875,0,1,1-1.2,2.363,1.875,1.875,0,0,1,1.2-2.363ZM7.5,1.25A1.875,1.875,0,1,1,5.625,3.125,1.875,1.875,0,0,1,7.5,1.25ZM1.556,5.569a1.875,1.875,0,1,1,1.2,2.363,1.875,1.875,0,0,1-1.2-2.363Zm4.89,6.573a1.875,1.875,0,1,1-.415-2.619,1.875,1.875,0,0,1,.415,2.619ZM6.875,7.5a.625.625,0,1,1,.625.625A.625.625,0,0,1,6.875,7.5Zm0,0" fill="#001839"/>
</svg>
