<svg xmlns="http://www.w3.org/2000/svg" width="15" height="15" viewBox="0 0 15 15">
  <g id="link" transform="translate(0 0)">
    <g id="Group_510" data-name="Group 510" transform="translate(5.044 0)">
      <g id="Group_509" data-name="Group 509" transform="translate(0 0)">
        <path id="Path_234" data-name="Path 234" d="M181.086,1.03a3.516,3.516,0,0,0-4.972,0l-2.938,2.938a3.549,3.549,0,0,0,0,4.972,3.347,3.347,0,0,0,.707.536l.536-.536a1.207,1.207,0,0,0,.222-1.06,1.7,1.7,0,0,1-.222-.183,1.777,1.777,0,0,1,0-2.486l2.938-2.938a1.758,1.758,0,0,1,2.486,2.486L177.9,6.7a5.06,5.06,0,0,1,.22,2.261c.008-.008.019-.014.027-.022L181.086,6A3.516,3.516,0,0,0,181.086,1.03Z" transform="translate(-172.159 0)" fill="#fff"/>
      </g>
    </g>
    <g id="Group_512" data-name="Group 512" transform="translate(0 5.296)">
      <g id="Group_511" data-name="Group 511" transform="translate(0)">
        <path id="Path_235" data-name="Path 235" d="M9.168,181.312a3.346,3.346,0,0,0-.707-.536l-.536.536a1.207,1.207,0,0,0-.222,1.06,1.694,1.694,0,0,1,.222.183,1.777,1.777,0,0,1,0,2.486l-3.166,3.166a1.758,1.758,0,1,1-2.486-2.486l2.17-2.17a5.059,5.059,0,0,1-.22-2.261c-.008.008-.019.014-.027.022L1.03,184.478A3.516,3.516,0,0,0,6,189.45l3.166-3.166A3.547,3.547,0,0,0,9.168,181.312Z" transform="translate(0 -180.776)" fill="#fff"/>
      </g>
    </g>
  </g>
</svg>
