<svg xmlns="http://www.w3.org/2000/svg" width="40" height="40" viewBox="0 0 40 40">
  <path id="film" d="M40,20A20,20,0,1,0,20,40H40V36.667H31.042A20,20,0,0,0,40,20ZM29.8,33.484A5,5,0,1,1,30.9,26.5,5,5,0,0,1,29.8,33.484ZM29.551,11.64a5,5,0,1,1-3.21,6.3,5,5,0,0,1,3.21-6.3ZM20,3.333a5,5,0,1,1-5,5A5,5,0,0,1,20,3.333ZM4.149,14.849a5,5,0,1,1,3.21,6.3A5,5,0,0,1,4.149,14.849ZM17.187,32.377a5,5,0,1,1-1.106-6.983,5,5,0,0,1,1.106,6.983ZM18.333,20A1.667,1.667,0,1,1,20,21.667,1.667,1.667,0,0,1,18.333,20Zm0,0" fill="#001839" opacity="0.2"/>
</svg>
