<svg xmlns="http://www.w3.org/2000/svg" width="27" height="27" viewBox="0 0 27 27">
  <path id="film" d="M27,13.5A13.5,13.5,0,1,0,13.5,27H27V24.75H20.953A13.5,13.5,0,0,0,27,13.5Zm-6.887,9.1a3.375,3.375,0,1,1,.747-4.714A3.375,3.375,0,0,1,20.113,22.6ZM19.947,7.857A3.375,3.375,0,1,1,17.78,12.11a3.375,3.375,0,0,1,2.167-4.253ZM13.5,2.25a3.375,3.375,0,1,1-3.375,3.375A3.375,3.375,0,0,1,13.5,2.25ZM2.8,10.023a3.375,3.375,0,1,1,2.167,4.253A3.376,3.376,0,0,1,2.8,10.023Zm8.8,11.831a3.375,3.375,0,1,1-.747-4.714,3.375,3.375,0,0,1,.747,4.714Zm.773-8.355A1.125,1.125,0,1,1,13.5,14.625,1.125,1.125,0,0,1,12.375,13.5Zm0,0" fill="#001839" opacity="0.2"/>
</svg>
