<svg xmlns="http://www.w3.org/2000/svg" width="79.405" height="90" viewBox="0 0 79.405 90"><defs><style>.a{fill:#1E9A8D;}</style></defs><g transform="translate(-30.136)"><g transform="translate(62.836 0.721)"><g transform="translate(0)"><path class="a" d="M260.268,40.747,225.166,5.64A5.276,5.276,0,1,0,217.7,13.1l35.107,35.1a5.273,5.273,0,0,0,7.457-7.457Z" transform="translate(-216.163 -4.1)"/></g></g><g transform="translate(49.007 14.573)"><g transform="translate(0)"><path class="a" d="M150.259,82.905,150,84.229a56.682,56.682,0,0,1-12.5,25.321l19.1,19.1a56.493,56.493,0,0,1,25.2-12.624l1.327-.264Z" transform="translate(-137.494 -82.905)"/></g></g><g transform="translate(30.136 45.174)"><path class="a" d="M45.506,256.989l-13.052,13.05a7.909,7.909,0,0,0,0,11.188l7.457,7.457a7.909,7.909,0,0,0,11.188,0L64.15,275.633ZM47.37,277.5a2.636,2.636,0,0,1-3.729-3.728l3.729-3.728A2.636,2.636,0,0,1,51.1,273.77Z" transform="translate(-30.136 -256.989)"/></g><g transform="translate(58.556 60.834)"><g transform="translate(0)"><path class="a" d="M208.416,363.513,212,359.926a7.9,7.9,0,0,0,0-11.185l-2.664-2.666a49.984,49.984,0,0,0-4.246,3.211l3.182,3.186a2.631,2.631,0,0,1,0,3.726l-3.646,3.646-5.358-5.191-7.457,7.457L203.776,373.7a5.274,5.274,0,0,0,7.454-7.462Z" transform="translate(-191.813 -346.075)"/></g></g><g transform="translate(83.174)"><path class="a" d="M334.5,0a2.635,2.635,0,0,0-2.637,2.637V7.91a2.637,2.637,0,1,0,5.273,0V2.637A2.635,2.635,0,0,0,334.5,0Z" transform="translate(-331.864)"/></g><g transform="translate(98.994 21.094)"><path class="a" d="M429.774,120H424.5a2.637,2.637,0,1,0,0,5.273h5.273a2.637,2.637,0,0,0,0-5.273Z" transform="translate(-421.864 -120)"/></g><g transform="translate(93.721 5.273)"><g transform="translate(0)"><path class="a" d="M401.638,30.772a2.636,2.636,0,0,0-3.729,0l-5.273,5.273a2.636,2.636,0,1,0,3.729,3.728l5.273-5.273A2.636,2.636,0,0,0,401.638,30.772Z" transform="translate(-391.864 -30)"/></g></g></g></svg>