<svg xmlns="http://www.w3.org/2000/svg" width="17.221" height="20" viewBox="0 0 17.221 20"><g transform="translate(-11.5 -6.087)"><g transform="translate(11.5 6.087)"><g transform="translate(6.866 17.623)"><path class="a" d="M43.6,87.689A1.748,1.748,0,0,1,42.4,86v-.578a.022.022,0,0,1,.022-.022h3.511v.622A1.78,1.78,0,0,1,43.6,87.689Z" transform="translate(-42.4 -85.4)"/></g><g transform="translate(0 0)"><path class="a" d="M27.587,23.31H12.655A1.148,1.148,0,0,1,11.5,22.155v-.2a1.141,1.141,0,0,1,.333-.822l1.555-1.511V14.711a6.614,6.614,0,0,1,4.666-6.377c.022,0,.022-.022.022-.044V8.112a1.967,1.967,0,0,1,.867-1.666,2.033,2.033,0,0,1,3.177,1.666V8.29a6.633,6.633,0,0,1,4.711,6.4v4.933l1.555,1.533a1.141,1.141,0,0,1,.333.822v.2A1.11,1.11,0,0,1,27.587,23.31Z" transform="translate(-11.5 -6.087)"/></g></g></g></svg>