<svg xmlns="http://www.w3.org/2000/svg" width="17.454" height="16" viewBox="0 0 17.454 16"><defs><style>.a{fill:#1E9A8D;}</style></defs><g transform="translate(0 -0.492)"><path class="a" d="M4.545,156.061a2.723,2.723,0,0,1-2.576-1.855l-.025-.084a2.654,2.654,0,0,1-.126-.788v-4.959L.053,154.264a1.652,1.652,0,0,0,1.158,2l11.246,3.012a1.669,1.669,0,0,0,.419.054,1.622,1.622,0,0,0,1.572-1.189l.655-2.084Zm0,0" transform="translate(0 -142.841)"/><path class="a" d="M150.775,67.4a1.455,1.455,0,1,0-1.455-1.455A1.456,1.456,0,0,0,150.775,67.4Zm0,0" transform="translate(-144.23 -61.818)"/><path class="a" d="M98.047.492H87.138A1.821,1.821,0,0,0,85.32,2.31v8a1.821,1.821,0,0,0,1.818,1.818H98.047a1.821,1.821,0,0,0,1.818-1.818v-8A1.821,1.821,0,0,0,98.047.492ZM87.138,1.947H98.047a.364.364,0,0,1,.364.364V7.473l-2.3-2.681a1.3,1.3,0,0,0-.975-.447,1.271,1.271,0,0,0-.972.459l-2.7,3.242-.88-.878a1.277,1.277,0,0,0-1.8,0L86.775,9.175V2.31A.364.364,0,0,1,87.138,1.947Zm0,0" transform="translate(-82.411 0)"/></g></svg>