<svg xmlns="http://www.w3.org/2000/svg" width="16" height="16" viewBox="0 0 16 16">
  <path id="settings" d="M15.623,6.178l-1.23-.267a6.693,6.693,0,0,0-.4-.954L14.679,3.9a.478.478,0,0,0-.064-.6L12.7,1.385a.478.478,0,0,0-.6-.064L11.043,2a6.693,6.693,0,0,0-.954-.4L9.822.376A.478.478,0,0,0,9.355,0H6.645a.478.478,0,0,0-.467.376l-.267,1.23a6.692,6.692,0,0,0-.954.4L3.9,1.321a.478.478,0,0,0-.6.064L1.385,3.3a.478.478,0,0,0-.064.6L2,4.956a6.693,6.693,0,0,0-.4.954l-1.23.267A.478.478,0,0,0,0,6.645V9.354a.478.478,0,0,0,.376.467l1.23.267a6.692,6.692,0,0,0,.4.954L1.321,12.1a.478.478,0,0,0,.064.6L3.3,14.615a.478.478,0,0,0,.6.064L4.956,14a6.693,6.693,0,0,0,.954.4l.267,1.23A.478.478,0,0,0,6.645,16H9.355a.478.478,0,0,0,.467-.376l.267-1.23a6.693,6.693,0,0,0,.954-.4l1.059.681a.478.478,0,0,0,.6-.064L14.615,12.7a.478.478,0,0,0,.064-.6L14,11.043a6.693,6.693,0,0,0,.4-.954l1.23-.267A.478.478,0,0,0,16,9.354V6.645A.478.478,0,0,0,15.623,6.178ZM10.868,8A2.869,2.869,0,1,1,8,5.131,2.872,2.872,0,0,1,10.868,8Zm0,0" transform="translate(0 0)" fill="#313131" opacity="0.3"/>
</svg>
