<svg xmlns="http://www.w3.org/2000/svg" width="22.722" height="16" viewBox="0 0 22.722 16">
  <g id="wrench" transform="translate(0.001 0)" opacity="0.3">
    <path id="Path_26" data-name="Path 26" d="M22.526,270.73a.665.665,0,0,0-.471-.2H.665A.666.666,0,0,0,0,271.2v.445a2.888,2.888,0,0,0,2.885,2.884H19.837a2.888,2.888,0,0,0,2.885-2.884V271.2a.665.665,0,0,0-.2-.471Zm0,0" transform="translate(0 -258.53)" fill="#313131"/>
    <path id="Path_27" data-name="Path 27" d="M48.563,9.082A3.774,3.774,0,0,1,48,2.519a.443.443,0,0,1,.688.37v2.36a.888.888,0,0,0,.888.888h1.087a.888.888,0,0,0,.888-.888V2.889a.445.445,0,0,1,.7-.364,3.775,3.775,0,0,1-.575,6.558v1.591h8.008V.666A.666.666,0,0,0,59.011,0H41.221a.666.666,0,0,0-.666.666V10.674h8.007Zm0,0" transform="translate(-38.756)" fill="#313131"/>
  </g>
</svg>
