<svg xmlns="http://www.w3.org/2000/svg" width="21.429" height="15" viewBox="0 0 21.429 15"><rect id="backgroundrect" width="100%" height="100%" x="0" y="0" fill="none" stroke="none"/>
  
<g class="currentLayer" style=""><path id="Icon_awesome-users" data-name="Icon awesome-users" d="M3.2140004673504747,6.429 A2.143,2.143 0 1 0 1.0710004673504747,4.286 A2.145,2.145 0 0 0 3.2140004673504747,6.429 zm15,0 a2.143,2.143 0 1 0 -2.143,-2.143 A2.145,2.145 0 0 0 18.214000467350473,6.429 zM19.286000467350476,7.5 H17.143000467350475 a2.137,2.137 0 0 0 -1.51,0.6230000000000002 a4.9,4.9 0 0 1 2.515,3.6630000000000003 h2.21 a1.07,1.07 0 0 0 1.071,-1.071 V9.643 A2.145,2.145 0 0 0 19.286000467350476,7.5 zm-8.571,0 A3.75,3.75 0 1 0 6.964000467350475,3.75 A3.748,3.748 0 0 0 10.714000467350475,7.5 zm2.571,1.071 h-0.278 a5.177,5.177 0 0 1 -4.587,0 H8.143000467350475 a3.858,3.858 0 0 0 -3.857,3.857 v0.9640000000000002 A1.608,1.608 0 0 0 5.893000467350475,15 h9.643 a1.608,1.608 0 0 0 1.6070000000000002,-1.6070000000000002 v-0.9640000000000002 A3.858,3.858 0 0 0 13.286000467350474,8.571 zM5.800000467350475,8.123 a2.137,2.137 0 0 0 -1.51,-0.6230000000000002 H2.1430004673504746 A2.145,2.145 0 0 0 4.6735047476431646e-7,9.643 v1.071 a1.07,1.07 0 0 0 1.071,1.071 H3.278000467350475 A4.91,4.91 0 0 1 5.800000467350475,8.123 z" fill="#1e9a8d" opacity="1" class="" fill-opacity="1"/></g></svg>