<svg xmlns="http://www.w3.org/2000/svg" width="22.722" height="16" style=""><rect id="backgroundrect" width="100%" height="100%" x="0" y="0" fill="none" stroke="none"/>
  
<g class="currentLayer" style=""><title>Layer 1</title><g id="wrench" opacity="1" class="selected" fill-opacity="1" fill="#1e9a8d">
    <path id="Path_26" data-name="Path 26" d="M21.98936556773167,12.73763565301897 a0.6650000000000005,0.6650000000000005 0 0 0 -0.47100000000000014,-0.2 H0.1283655677316714 A0.6660000000000005,0.6660000000000005 0 0 0 -0.536634432268329,13.20763565301894 v0.4450000000000002 a2.888,2.888 0 0 0 2.8850000000000002,2.8840000000000003 H19.30036556773167 a2.888,2.888 0 0 0 2.8850000000000002,-2.8840000000000003 V13.20763565301894 a0.6650000000000005,0.6650000000000005 0 0 0 -0.2,-0.47100000000000014 zm0,0 " fill="#1e9a8d" opacity="1"/>
    <path id="Path_27" data-name="Path 27" d="M9.270365048932845,9.619634432315827 A3.774,3.774 0 0 1 8.707365048932843,3.0566344323158265 a0.44300000000000017,0.44300000000000017 0 0 1 0.6880000000000006,0.37000000000000016 v2.36 a0.8880000000000003,0.8880000000000003 0 0 0 0.8880000000000003,0.8880000000000003 h1.087 a0.8880000000000003,0.8880000000000003 0 0 0 0.8880000000000003,-0.8880000000000003 V3.4266344323158267 a0.4450000000000002,0.4450000000000002 0 0 1 0.7000000000000003,-0.36400000000000016 a3.775,3.775 0 0 1 -0.5750000000000003,6.558 v1.5910000000000002 h8.008 V1.2036344323158268 A0.6660000000000005,0.6660000000000005 0 0 0 19.718365048932846,0.5376344323158264 H1.9283650489328394 a0.6660000000000005,0.6660000000000005 0 0 0 -0.6660000000000005,0.6660000000000005 V11.211634432315826 h8.007 zm0,0 " fill="#1e9a8d" opacity="1"/>
  </g></g></svg>