<svg xmlns="http://www.w3.org/2000/svg" width="9.333" height="14" viewBox="0 0 9.333 14">
  <g id="download_2_" data-name="download (2)" transform="translate(-85.334)">
    <g id="Group_72" data-name="Group 72" transform="translate(85.334)">
      <g id="Group_71" data-name="Group 71">
        <path id="Path_75" data-name="Path 75" d="M89.588,11.5h0c.013.013.028.026.042.038l.021.016.025.018.025.015.023.014.027.013.025.012.026.01.028.01.026.007.029.007.031,0,.026,0a.587.587,0,0,0,.115,0l.026,0,.031,0,.029-.007.027-.007.028-.01.026-.01.025-.012.027-.013.023-.014.025-.015.025-.018.021-.016c.015-.012.029-.025.042-.038h0L94.5,7.412a.583.583,0,0,0-.825-.825L90.584,9.675V.583a.583.583,0,0,0-1.167,0V9.675L86.33,6.588a.583.583,0,0,0-.825.825Z" transform="translate(-85.334)" fill="#fff"/>
        <path id="Path_76" data-name="Path 76" d="M94.084,469.333H85.917a.583.583,0,0,0,0,1.167h8.167a.583.583,0,1,0,0-1.167Z" transform="translate(-85.334 -456.5)" fill="#fff"/>
      </g>
    </g>
  </g>
</svg>
