<svg xmlns="http://www.w3.org/2000/svg" width="17" height="14" viewBox="0 0 17 14">
  <g id="Group_634" data-name="Group 634" transform="translate(-1204 -121)">
    <g id="Rectangle_35" data-name="Rectangle 35" transform="translate(1209 121)" fill="none" stroke="#001839" stroke-width="1">
      <rect width="12" height="4" rx="2" stroke="none"/>
      <rect x="0.5" y="0.5" width="11" height="3" rx="1.5" fill="none"/>
    </g>
    <g id="Rectangle_38" data-name="Rectangle 38" transform="translate(1204 121)" fill="none" stroke="#001839" stroke-width="1">
      <rect width="4" height="4" rx="2" stroke="none"/>
      <rect x="0.5" y="0.5" width="3" height="3" rx="1.5" fill="none"/>
    </g>
    <g id="Rectangle_36" data-name="Rectangle 36" transform="translate(1209 126)" fill="none" stroke="#001839" stroke-width="1">
      <rect width="12" height="4" rx="2" stroke="none"/>
      <rect x="0.5" y="0.5" width="11" height="3" rx="1.5" fill="none"/>
    </g>
    <g id="Rectangle_39" data-name="Rectangle 39" transform="translate(1204 126)" fill="none" stroke="#001839" stroke-width="1">
      <rect width="4" height="4" rx="2" stroke="none"/>
      <rect x="0.5" y="0.5" width="3" height="3" rx="1.5" fill="none"/>
    </g>
    <g id="Rectangle_37" data-name="Rectangle 37" transform="translate(1209 131)" fill="none" stroke="#001839" stroke-width="1">
      <rect width="12" height="4" rx="2" stroke="none"/>
      <rect x="0.5" y="0.5" width="11" height="3" rx="1.5" fill="none"/>
    </g>
    <g id="Rectangle_40" data-name="Rectangle 40" transform="translate(1204 131)" fill="none" stroke="#001839" stroke-width="1">
      <rect width="4" height="4" rx="2" stroke="none"/>
      <rect x="0.5" y="0.5" width="3" height="3" rx="1.5" fill="none"/>
    </g>
  </g>
</svg>
