<svg width="127" height="128" viewBox="0 0 127 128" fill="none" xmlns="http://www.w3.org/2000/svg">
<g filter="url(#filter0_d_84_565)">
<mask id="path-1-inside-1_84_565" fill="white">
<path d="M85.3092 24.5994C75.9661 19.4144 65.0827 17.7232 54.6067 19.8286C44.1307 21.934 34.7457 27.6985 28.1312 36.0906C21.5167 44.4827 18.1044 54.9547 18.5048 65.6327C18.9052 76.3107 23.0922 86.4977 30.3167 94.3709C37.5411 102.244 47.3314 107.29 57.9357 108.604C68.5399 109.919 79.2661 107.418 88.1947 101.548C97.1232 95.6774 103.672 86.8215 106.668 76.5647C109.664 66.3079 108.913 55.3196 104.548 45.5661L90.1477 52.0101C92.982 58.3441 93.4699 65.48 91.5241 72.1408C89.5783 78.8017 85.3258 84.5528 79.5275 88.3649C73.7292 92.1771 66.7636 93.8016 59.8771 92.9477C52.9906 92.0938 46.6327 88.8172 41.9411 83.7043C37.2495 78.5914 34.5303 71.9759 34.2703 65.0415C34.0103 58.1071 36.2263 51.3065 40.5218 45.8566C44.8173 40.4067 50.912 36.6632 57.7152 35.2959C64.5184 33.9287 71.5862 35.0269 77.6537 38.3942L85.3092 24.5994Z"/>
</mask>
<path d="M85.3092 24.5994C75.9661 19.4144 65.0827 17.7232 54.6067 19.8286C44.1307 21.934 34.7457 27.6985 28.1312 36.0906C21.5167 44.4827 18.1044 54.9547 18.5048 65.6327C18.9052 76.3107 23.0922 86.4977 30.3167 94.3709C37.5411 102.244 47.3314 107.29 57.9357 108.604C68.5399 109.919 79.2661 107.418 88.1947 101.548C97.1232 95.6774 103.672 86.8215 106.668 76.5647C109.664 66.3079 108.913 55.3196 104.548 45.5661L90.1477 52.0101C92.982 58.3441 93.4699 65.48 91.5241 72.1408C89.5783 78.8017 85.3258 84.5528 79.5275 88.3649C73.7292 92.1771 66.7636 93.8016 59.8771 92.9477C52.9906 92.0938 46.6327 88.8172 41.9411 83.7043C37.2495 78.5914 34.5303 71.9759 34.2703 65.0415C34.0103 58.1071 36.2263 51.3065 40.5218 45.8566C44.8173 40.4067 50.912 36.6632 57.7152 35.2959C64.5184 33.9287 71.5862 35.0269 77.6537 38.3942L85.3092 24.5994Z" stroke="#56ACA3" stroke-width="26" shape-rendering="crispEdges" mask="url(#path-1-inside-1_84_565)"/>
</g>
<mask id="path-2-inside-2_84_565" fill="white">
<path d="M86.5026 23.2863C79.21 18.9419 70.8374 16.7487 62.3516 16.9601C53.8657 17.1714 45.6126 19.7785 38.5454 24.4805C31.4781 29.1824 25.8849 35.7874 22.4115 43.5328C18.9381 51.2781 17.7263 59.848 18.9159 68.2527C20.1055 76.6574 23.6481 84.5543 29.1346 91.0314C34.621 97.5086 41.8276 102.302 49.9222 104.858C58.0168 107.414 66.6692 107.628 74.8804 105.476C83.0915 103.324 90.5266 98.8933 96.327 92.6957L84.8082 81.9151C81.0414 85.9399 76.213 88.8172 70.8806 90.2147C65.5482 91.6123 59.9293 91.4731 54.6726 89.8133C49.4159 88.1534 44.7359 85.0407 41.1729 80.8343C37.61 76.628 35.3094 71.4998 34.5368 66.0417C33.7643 60.5836 34.5513 55.0182 36.8069 49.9884C39.0625 44.9585 42.6948 40.6691 47.2844 37.6156C51.8739 34.5621 57.2335 32.869 62.7443 32.7318C68.2551 32.5946 73.6923 34.0188 78.4282 36.8401L86.5026 23.2863Z"/>
</mask>
<path d="M86.5026 23.2863C79.21 18.9419 70.8374 16.7487 62.3516 16.9601C53.8657 17.1714 45.6126 19.7785 38.5454 24.4805C31.4781 29.1824 25.8849 35.7874 22.4115 43.5328C18.9381 51.2781 17.7263 59.848 18.9159 68.2527C20.1055 76.6574 23.6481 84.5543 29.1346 91.0314C34.621 97.5086 41.8276 102.302 49.9222 104.858C58.0168 107.414 66.6692 107.628 74.8804 105.476C83.0915 103.324 90.5266 98.8933 96.327 92.6957L84.8082 81.9151C81.0414 85.9399 76.213 88.8172 70.8806 90.2147C65.5482 91.6123 59.9293 91.4731 54.6726 89.8133C49.4159 88.1534 44.7359 85.0407 41.1729 80.8343C37.61 76.628 35.3094 71.4998 34.5368 66.0417C33.7643 60.5836 34.5513 55.0182 36.8069 49.9884C39.0625 44.9585 42.6948 40.6691 47.2844 37.6156C51.8739 34.5621 57.2335 32.869 62.7443 32.7318C68.2551 32.5946 73.6923 34.0188 78.4282 36.8401L86.5026 23.2863Z" stroke="#29B1A3" stroke-width="26" mask="url(#path-2-inside-2_84_565)"/>
<mask id="path-3-inside-3_84_565" fill="white">
<path d="M88.8567 22.3162C80.0624 16.3081 69.4221 13.614 58.8283 14.7132C48.2345 15.8123 38.3739 20.6333 31.0003 28.3188C23.6267 36.0043 19.2181 46.056 18.5585 56.6863C17.899 67.3165 21.0313 77.8361 27.3983 86.3742C33.7654 94.9122 42.9544 100.915 53.3311 103.315C63.7078 105.716 74.5995 104.357 84.069 99.4825C93.5386 94.6076 100.972 86.532 105.048 76.6918C109.123 66.8517 109.576 55.885 106.326 45.7422L91.3019 50.5561C93.4124 57.1429 93.1181 64.2647 90.4715 70.655C87.8249 77.0453 82.9975 82.2897 76.8479 85.4555C70.6983 88.6213 63.6252 89.5032 56.8865 87.9445C50.1478 86.3858 44.1803 82.4875 40.0455 76.9428C35.9107 71.3981 33.8766 64.5666 34.3049 57.6632C34.7332 50.7599 37.5962 44.2322 42.3847 39.2412C47.1732 34.2502 53.5767 31.1193 60.4564 30.4056C67.3361 29.6918 74.246 31.4413 79.9571 35.343L88.8567 22.3162Z"/>
</mask>
<path d="M88.8567 22.3162C80.0624 16.3081 69.4221 13.614 58.8283 14.7132C48.2345 15.8123 38.3739 20.6333 31.0003 28.3188C23.6267 36.0043 19.2181 46.056 18.5585 56.6863C17.899 67.3165 21.0313 77.8361 27.3983 86.3742C33.7654 94.9122 42.9544 100.915 53.3311 103.315C63.7078 105.716 74.5995 104.357 84.069 99.4825C93.5386 94.6076 100.972 86.532 105.048 76.6918C109.123 66.8517 109.576 55.885 106.326 45.7422L91.3019 50.5561C93.4124 57.1429 93.1181 64.2647 90.4715 70.655C87.8249 77.0453 82.9975 82.2897 76.8479 85.4555C70.6983 88.6213 63.6252 89.5032 56.8865 87.9445C50.1478 86.3858 44.1803 82.4875 40.0455 76.9428C35.9107 71.3981 33.8766 64.5666 34.3049 57.6632C34.7332 50.7599 37.5962 44.2322 42.3847 39.2412C47.1732 34.2502 53.5767 31.1193 60.4564 30.4056C67.3361 29.6918 74.246 31.4413 79.9571 35.343L88.8567 22.3162Z" stroke="#12988A" stroke-width="26" mask="url(#path-3-inside-3_84_565)"/>
<defs>
<filter id="filter0_d_84_565" x="13.4731" y="18.9463" width="98" height="98.0002" filterUnits="userSpaceOnUse" color-interpolation-filters="sRGB">
<feFlood flood-opacity="0" result="BackgroundImageFix"/>
<feColorMatrix in="SourceAlpha" type="matrix" values="0 0 0 0 0 0 0 0 0 0 0 0 0 0 0 0 0 0 127 0" result="hardAlpha"/>
<feOffset dx="-1" dy="4"/>
<feGaussianBlur stdDeviation="2"/>
<feComposite in2="hardAlpha" operator="out"/>
<feColorMatrix type="matrix" values="0 0 0 0 0.3875 0 0 0 0 0.3875 0 0 0 0 0.3875 0 0 0 0.4 0"/>
<feBlend mode="normal" in2="BackgroundImageFix" result="effect1_dropShadow_84_565"/>
<feBlend mode="normal" in="SourceGraphic" in2="effect1_dropShadow_84_565" result="shape"/>
</filter>
</defs>
</svg>
