<svg width="124" height="128" viewBox="0 0 124 128" fill="none" xmlns="http://www.w3.org/2000/svg">
<g filter="url(#filter0_d_84_567)">
<path d="M105.932 77.3632C103.773 86.2046 98.9838 94.1837 92.1967 100.247C85.4096 106.311 76.9434 110.174 67.9155 111.327C58.8876 112.48 49.7223 110.868 41.6293 106.704C33.5363 102.541 26.896 96.0208 22.5848 88.0054C18.2737 79.9901 16.4942 70.8559 17.4813 61.8084C18.4685 52.7608 22.1758 44.2253 28.1141 37.3282C34.0523 30.4312 41.9423 25.4968 50.7427 23.1764C59.5432 20.8559 68.8404 21.2585 77.4073 24.331L62.2159 66.6892L105.932 77.3632Z" fill="#129385"/>
<path d="M102.479 46.593C106.544 54.7363 108.043 63.9206 106.78 72.9338C105.517 81.9469 101.551 90.3653 95.4051 97.0778C89.259 103.79 81.222 108.481 72.3548 110.532C63.4876 112.583 54.2071 111.896 45.738 108.564C37.2689 105.231 30.0093 99.4087 24.9175 91.8651C19.8257 84.3215 17.1409 75.4113 17.2175 66.3104C17.294 57.2095 20.1284 48.3458 25.3465 40.8889C30.5645 33.4321 37.921 27.7328 46.445 24.5432L62.2159 66.6891L102.479 46.593Z" fill="#129385"/>
<path d="M101.797 45.2799C105.317 51.789 107.178 59.066 107.215 66.4662C107.252 73.8664 105.463 81.1614 102.007 87.7051C98.5506 94.2488 93.534 99.8391 87.4013 103.981C81.2686 108.123 74.2092 110.688 66.8482 111.45C59.4872 112.212 52.0519 111.147 45.201 108.348C38.3501 105.55 32.295 101.106 27.572 95.4087C22.849 89.7115 19.604 82.9375 18.1243 75.6866C16.6447 68.4358 16.9761 60.9319 19.0892 53.8397L62.2157 66.6891L101.797 45.2799Z" fill="#129385"/>
</g>
<path d="M104.932 72.3632C102.773 81.2046 97.9838 89.1837 91.1967 95.2473C84.4096 101.311 75.9434 105.174 66.9155 106.327C57.8876 107.48 48.7223 105.868 40.6293 101.704C32.5363 97.5405 25.896 91.0208 21.5848 83.0054C17.2737 74.9901 15.4942 65.8559 16.4813 56.8084C17.4685 47.7608 21.1758 39.2253 27.1141 32.3282C33.0523 25.4312 40.9423 20.4968 49.7427 18.1764C58.5432 15.8559 67.8404 16.2585 76.4073 19.331L61.2159 61.6892L104.932 72.3632Z" fill="#56ACA3"/>
<path d="M101.479 41.593C105.544 49.7363 107.043 58.9206 105.78 67.9338C104.517 76.9469 100.551 85.3653 94.4051 92.0778C88.259 98.7903 80.222 103.481 71.3548 105.532C62.4876 107.583 53.2071 106.896 44.738 103.564C36.2689 100.231 29.0093 94.4087 23.9175 86.8651C18.8257 79.3215 16.1409 70.4113 16.2175 61.3104C16.294 52.2095 19.1284 43.3458 24.3465 35.8889C29.5645 28.4321 36.921 22.7328 45.445 19.5432L61.2159 61.6891L101.479 41.593Z" fill="#82C2BC"/>
<path d="M100.797 40.2799C104.317 46.789 106.178 54.066 106.215 61.4662C106.252 68.8664 104.463 76.1614 101.007 82.7051C97.5506 89.2488 92.534 94.8391 86.4013 98.9809C80.2686 103.123 73.2092 105.688 65.8482 106.45C58.4872 107.212 51.0519 106.147 44.201 103.348C37.3501 100.55 31.295 96.1059 26.572 90.4087C21.849 84.7115 18.604 77.9375 17.1243 70.6866C15.6447 63.4358 15.9761 55.9319 18.0892 48.8397L61.2157 61.6891L100.797 40.2799Z" fill="#0E9B8C"/>
<defs>
<filter id="filter0_d_84_567" x="11.2158" y="21.6892" width="98" height="98" filterUnits="userSpaceOnUse" color-interpolation-filters="sRGB">
<feFlood flood-opacity="0" result="BackgroundImageFix"/>
<feColorMatrix in="SourceAlpha" type="matrix" values="0 0 0 0 0 0 0 0 0 0 0 0 0 0 0 0 0 0 127 0" result="hardAlpha"/>
<feOffset dx="-2" dy="4"/>
<feGaussianBlur stdDeviation="2"/>
<feComposite in2="hardAlpha" operator="out"/>
<feColorMatrix type="matrix" values="0 0 0 0 0.3875 0 0 0 0 0.3875 0 0 0 0 0.3875 0 0 0 0.4 0"/>
<feBlend mode="normal" in2="BackgroundImageFix" result="effect1_dropShadow_84_567"/>
<feBlend mode="normal" in="SourceGraphic" in2="effect1_dropShadow_84_567" result="shape"/>
</filter>
</defs>
</svg>
