<svg width="128" height="127" viewBox="0 0 128 127" fill="none" xmlns="http://www.w3.org/2000/svg">
<mask id="path-1-inside-1_84_564" fill="white">
<path d="M81.2836 21.9254C73.4463 18.6649 64.8466 17.6876 56.4775 19.1064C48.1084 20.5252 40.3112 24.2822 33.9864 29.9435C27.6615 35.6049 23.0669 42.9397 20.7331 51.1011C18.3992 59.2624 18.4214 67.9175 20.7969 76.0668C23.1724 84.2161 27.8045 91.5274 34.1582 97.1563C40.5119 102.785 48.3282 106.502 56.7044 107.878C65.0807 109.254 73.6753 108.233 81.4959 104.932C89.3164 101.632 96.044 96.1867 100.902 89.2256L87.9639 80.1971C84.8092 84.7177 80.4403 88.2538 75.3615 90.3972C70.2828 92.5406 64.7014 93.2038 59.2618 92.3103C53.8222 91.4167 48.7463 89.0028 44.6201 85.3473C40.4939 81.6919 37.4858 76.9439 35.9431 71.6517C34.4004 66.3594 34.3861 60.7388 35.9017 55.4387C37.4173 50.1386 40.4011 45.3753 44.5085 41.6988C48.6159 38.0223 53.6794 35.5825 59.1144 34.6611C64.5493 33.7397 70.1341 34.3744 75.2237 36.4918L81.2836 21.9254Z"/>
</mask>
<path d="M81.2836 21.9254C73.4463 18.6649 64.8466 17.6876 56.4775 19.1064C48.1084 20.5252 40.3112 24.2822 33.9864 29.9435C27.6615 35.6049 23.0669 42.9397 20.7331 51.1011C18.3992 59.2624 18.4214 67.9175 20.7969 76.0668C23.1724 84.2161 27.8045 91.5274 34.1582 97.1563C40.5119 102.785 48.3282 106.502 56.7044 107.878C65.0807 109.254 73.6753 108.233 81.4959 104.932C89.3164 101.632 96.044 96.1867 100.902 89.2256L87.9639 80.1971C84.8092 84.7177 80.4403 88.2538 75.3615 90.3972C70.2828 92.5406 64.7014 93.2038 59.2618 92.3103C53.8222 91.4167 48.7463 89.0028 44.6201 85.3473C40.4939 81.6919 37.4858 76.9439 35.9431 71.6517C34.4004 66.3594 34.3861 60.7388 35.9017 55.4387C37.4173 50.1386 40.4011 45.3753 44.5085 41.6988C48.6159 38.0223 53.6794 35.5825 59.1144 34.6611C64.5493 33.7397 70.1341 34.3744 75.2237 36.4918L81.2836 21.9254Z" stroke="#56ACA3" stroke-width="26" mask="url(#path-1-inside-1_84_564)"/>
<mask id="path-2-inside-2_84_564" fill="white">
<path d="M34.5636 29.4355C28.143 34.988 23.4237 42.2433 20.9509 50.3637C18.478 58.484 18.3523 67.1381 20.5884 75.3268C22.8244 83.5156 27.3309 90.9048 33.5876 96.6415C39.8442 102.378 47.5959 106.228 55.9474 107.747C64.2989 109.266 72.9097 108.391 80.7855 105.225C88.6613 102.058 95.4809 96.7289 100.457 89.8517C105.433 82.9746 108.362 74.8303 108.906 66.3592C109.451 57.8882 107.588 49.4359 103.534 41.9784L89.6731 49.5143C92.3062 54.3572 93.5158 59.8462 93.1622 65.3474C92.8087 70.8485 90.9064 76.1375 87.675 80.6036C84.4436 85.0696 80.0149 88.5307 74.9003 90.587C69.7857 92.6434 64.1938 93.2112 58.7702 92.2248C53.3467 91.2385 48.3127 88.7383 44.2496 85.0129C40.1865 81.2875 37.2599 76.4888 35.8078 71.171C34.3557 65.8532 34.4373 60.2331 36.0432 54.9597C37.6491 49.6863 40.7138 44.9747 44.8834 41.3688L34.5636 29.4355Z"/>
</mask>
<path d="M34.5636 29.4355C28.143 34.988 23.4237 42.2433 20.9509 50.3637C18.478 58.484 18.3523 67.1381 20.5884 75.3268C22.8244 83.5156 27.3309 90.9048 33.5876 96.6415C39.8442 102.378 47.5959 106.228 55.9474 107.747C64.2989 109.266 72.9097 108.391 80.7855 105.225C88.6613 102.058 95.4809 96.7289 100.457 89.8517C105.433 82.9746 108.362 74.8303 108.906 66.3592C109.451 57.8882 107.588 49.4359 103.534 41.9784L89.6731 49.5143C92.3062 54.3572 93.5158 59.8462 93.1622 65.3474C92.8087 70.8485 90.9064 76.1375 87.675 80.6036C84.4436 85.0696 80.0149 88.5307 74.9003 90.587C69.7857 92.6434 64.1938 93.2112 58.7702 92.2248C53.3467 91.2385 48.3127 88.7383 44.2496 85.0129C40.1865 81.2875 37.2599 76.4888 35.8078 71.171C34.3557 65.8532 34.4373 60.2331 36.0432 54.9597C37.6491 49.6863 40.7138 44.9747 44.8834 41.3688L34.5636 29.4355Z" stroke="#56ACA3" stroke-width="26" mask="url(#path-2-inside-2_84_564)"/>
<mask id="path-3-inside-3_84_564" fill="white">
<path d="M52.9472 19.8514C44.7187 21.936 37.2476 26.3056 31.3966 32.4554C25.5456 38.6052 21.5533 46.2846 19.8808 54.6067C18.2083 62.9288 18.9237 71.5542 21.9444 79.4871C24.9652 87.4199 30.1681 94.3366 36.9523 99.4384C43.7365 104.54 51.8255 107.619 60.285 108.32C68.7446 109.02 77.2297 107.314 84.7608 103.397C92.2918 99.4809 98.5615 93.5143 102.846 86.1864C107.13 78.8585 109.255 70.4682 108.974 61.9843L93.206 62.5063C93.3884 68.0158 92.0088 73.4645 89.2264 78.2233C86.444 82.9821 82.3724 86.8569 77.4817 89.4003C72.591 91.9436 67.0807 93.0518 61.587 92.5969C56.0933 92.142 50.8403 90.1425 46.4345 86.8293C42.0288 83.5161 38.65 79.0244 36.6883 73.8727C34.7266 68.7211 34.262 63.1196 35.3482 57.7152C36.4343 52.3108 39.0269 47.3237 42.8266 43.33C46.6263 39.3362 51.4781 36.4986 56.8218 35.1448L52.9472 19.8514Z"/>
</mask>
<path d="M52.9472 19.8514C44.7187 21.936 37.2476 26.3056 31.3966 32.4554C25.5456 38.6052 21.5533 46.2846 19.8808 54.6067C18.2083 62.9288 18.9237 71.5542 21.9444 79.4871C24.9652 87.4199 30.1681 94.3366 36.9523 99.4384C43.7365 104.54 51.8255 107.619 60.285 108.32C68.7446 109.02 77.2297 107.314 84.7608 103.397C92.2918 99.4809 98.5615 93.5143 102.846 86.1864C107.13 78.8585 109.255 70.4682 108.974 61.9843L93.206 62.5063C93.3884 68.0158 92.0088 73.4645 89.2264 78.2233C86.444 82.9821 82.3724 86.8569 77.4817 89.4003C72.591 91.9436 67.0807 93.0518 61.587 92.5969C56.0933 92.142 50.8403 90.1425 46.4345 86.8293C42.0288 83.5161 38.65 79.0244 36.6883 73.8727C34.7266 68.7211 34.262 63.1196 35.3482 57.7152C36.4343 52.3108 39.0269 47.3237 42.8266 43.33C46.6263 39.3362 51.4781 36.4986 56.8218 35.1448L52.9472 19.8514Z" stroke="#82C2BC" stroke-width="26" mask="url(#path-3-inside-3_84_564)"/>
<mask id="path-4-inside-4_84_564" fill="white">
<path d="M89.3836 26.3166C82.3746 21.5283 74.1542 18.82 65.6715 18.5045C57.1889 18.189 48.79 20.2792 41.4447 24.5337C34.0993 28.7882 28.1071 35.0335 24.16 42.5485C20.2129 50.0634 18.4718 58.5416 19.1377 67.0039C19.8037 75.4663 22.8496 83.5677 27.9237 90.3727C32.9978 97.1777 39.8932 102.409 47.8136 105.462C55.7341 108.515 64.3565 109.266 72.6854 107.627C81.0142 105.989 88.7098 102.028 94.8835 96.2018L84.0556 84.7275C80.0464 88.5108 75.0488 91.0831 69.64 92.1471C64.2312 93.2112 58.6317 92.7238 53.4881 90.741C48.3445 88.7583 43.8666 85.3612 40.5714 80.942C37.2763 76.5228 35.2982 71.2617 34.8657 65.7661C34.4332 60.2706 35.5639 54.7649 38.1272 49.8846C40.6905 45.0043 44.5819 40.9485 49.352 38.1856C54.1222 35.4227 59.5765 34.0653 65.0852 34.2702C70.5939 34.4751 75.9323 36.2339 80.484 39.3435L89.3836 26.3166Z"/>
</mask>
<path d="M89.3836 26.3166C82.3746 21.5283 74.1542 18.82 65.6715 18.5045C57.1889 18.189 48.79 20.2792 41.4447 24.5337C34.0993 28.7882 28.1071 35.0335 24.16 42.5485C20.2129 50.0634 18.4718 58.5416 19.1377 67.0039C19.8037 75.4663 22.8496 83.5677 27.9237 90.3727C32.9978 97.1777 39.8932 102.409 47.8136 105.462C55.7341 108.515 64.3565 109.266 72.6854 107.627C81.0142 105.989 88.7098 102.028 94.8835 96.2018L84.0556 84.7275C80.0464 88.5108 75.0488 91.0831 69.64 92.1471C64.2312 93.2112 58.6317 92.7238 53.4881 90.741C48.3445 88.7583 43.8666 85.3612 40.5714 80.942C37.2763 76.5228 35.2982 71.2617 34.8657 65.7661C34.4332 60.2706 35.5639 54.7649 38.1272 49.8846C40.6905 45.0043 44.5819 40.9485 49.352 38.1856C54.1222 35.4227 59.5765 34.0653 65.0852 34.2702C70.5939 34.4751 75.9323 36.2339 80.484 39.3435L89.3836 26.3166Z" stroke="#12988A" stroke-width="26" mask="url(#path-4-inside-4_84_564)"/>
</svg>
