<svg width="124" height="123" viewBox="0 0 124 123" fill="none" xmlns="http://www.w3.org/2000/svg">
<path d="M105.715 72.1473C103.556 80.9888 98.767 88.9679 91.9799 95.0315C85.1928 101.095 76.7266 104.958 67.6987 106.111C58.6708 107.264 49.5055 105.652 41.4125 101.488C33.3195 97.3247 26.6792 90.805 22.368 82.7896C18.0569 74.7743 16.2774 65.6401 17.2645 56.5926C18.2517 47.545 21.959 39.0095 27.8973 32.1124C33.8355 25.2153 41.7255 20.281 50.5259 17.9605C59.3264 15.6401 68.6236 16.0427 77.1905 19.1151L61.9991 61.4734L105.715 72.1473Z" fill="#56ACA3"/>
<path d="M102.263 41.3772C106.327 49.5205 107.827 58.7048 106.564 67.7179C105.301 76.7311 101.334 85.1495 95.1883 91.862C89.0422 98.5745 81.0052 103.266 72.138 105.316C63.2708 107.367 53.9903 106.68 45.5212 103.348C37.0521 100.015 29.7925 94.1929 24.7007 86.6493C19.6089 79.1057 16.9241 70.1955 17.0007 61.0946C17.0772 51.9937 19.9116 43.1299 25.1297 35.6731C30.3477 28.2163 37.7042 22.517 46.2282 19.3273L61.9991 61.4733L102.263 41.3772Z" fill="#82C2BC"/>
<path d="M101.58 40.0641C105.101 46.5732 106.962 53.8502 106.998 61.2504C107.035 68.6506 105.246 75.9456 101.79 82.4893C98.3338 89.0329 93.3172 94.6233 87.1845 98.7651C81.0519 102.907 73.9924 105.472 66.6314 106.234C59.2704 106.996 51.8352 105.931 44.9842 103.133C38.1333 100.335 32.0782 95.8901 27.3552 90.1929C22.6322 84.4957 19.3872 77.7217 17.9075 70.4708C16.4279 63.2199 16.7593 55.7161 18.8724 48.6239L61.9989 61.4732L101.58 40.0641Z" fill="#12988A"/>
</svg>
