<svg width="124" height="89" viewBox="0 0 124 89" fill="none" xmlns="http://www.w3.org/2000/svg">
<path d="M0 1H124" stroke="#D8D8D8"/>
<path d="M0 22.5H124" stroke="#D8D8D8"/>
<path d="M0 44.5H124" stroke="#D8D8D8"/>
<path d="M0 66.5H124" stroke="#D8D8D8"/>
<path d="M0 88.5H124" stroke="#D8D8D8"/>
<circle cx="28.5" cy="21.5" r="5.5" fill="#12988A"/>
<circle r="5.5" transform="matrix(1 0 0 -1 32.5 81.5)" fill="#56ACA3"/>
<circle r="5.5" transform="matrix(-1 0 0 1 99.5 32.5)" fill="#12988A"/>
<circle cx="103.5" cy="70.5" r="5.5" transform="rotate(-180 103.5 70.5)" fill="#56ACA3"/>
<circle cx="42.5" cy="32.5" r="3.5" fill="#12988A"/>
<circle r="3.5" transform="matrix(1 0 0 -1 46.5 70.5)" fill="#56ACA3"/>
<circle r="3.5" transform="matrix(-1 0 0 1 85.5 43.5)" fill="#12988A"/>
<circle cx="89.5" cy="59.5" r="3.5" transform="rotate(-180 89.5 59.5)" fill="#56ACA3"/>
<circle cx="57.5" cy="37.5" r="6.5" fill="#12988A"/>
<circle r="6.5" transform="matrix(1 0 0 -1 61.5 65.5)" fill="#56ACA3"/>
<circle r="6.5" transform="matrix(-1 0 0 1 70.5 48.5)" fill="#12988A"/>
<circle cx="74.5" cy="54.5" r="6.5" transform="rotate(-180 74.5 54.5)" fill="#56ACA3"/>
<circle cx="34.5" cy="32.5" r="2.5" fill="#12988A"/>
<circle r="2.5" transform="matrix(1 0 0 -1 38.5 70.5)" fill="#56ACA3"/>
<circle r="2.5" transform="matrix(-1 0 0 1 93.5 43.5)" fill="#12988A"/>
<circle cx="97.5" cy="59.5" r="2.5" transform="rotate(-180 97.5 59.5)" fill="#56ACA3"/>
<circle cx="26.5" cy="39.5" r="4.5" fill="#12988A"/>
<circle r="4.5" transform="matrix(1 0 0 -1 30.5 63.5)" fill="#56ACA3"/>
<circle r="4.5" transform="matrix(-1 0 0 1 101.5 50.5)" fill="#12988A"/>
<circle cx="105.5" cy="52.5" r="4.5" transform="rotate(-180 105.5 52.5)" fill="#56ACA3"/>
<circle cx="25.5" cy="54.5" r="6.5" fill="#12988A"/>
<circle r="6.5" transform="matrix(1 0 0 -1 29.5 48.5)" fill="#56ACA3"/>
<circle r="6.5" transform="matrix(-1 0 0 1 102.5 65.5)" fill="#12988A"/>
<circle cx="106.5" cy="37.5" r="6.5" transform="rotate(-180 106.5 37.5)" fill="#56ACA3"/>
<circle cx="39" cy="46" r="6" fill="#12988A"/>
<circle r="6" transform="matrix(1 0 0 -1 43 57)" fill="#56ACA3"/>
<circle r="6" transform="matrix(-1 0 0 1 89 57)" fill="#12988A"/>
<circle cx="93" cy="46" r="6" transform="rotate(-180 93 46)" fill="#56ACA3"/>
<circle cx="53" cy="53" r="7" fill="#12988A"/>
<circle r="7" transform="matrix(1 0 0 -1 57 50)" fill="#56ACA3"/>
<circle r="7" transform="matrix(-1 0 0 1 75 64)" fill="#12988A"/>
<circle cx="79" cy="39" r="7" transform="rotate(-180 79 39)" fill="#56ACA3"/>
</svg>
