<svg width="126" height="89" viewBox="0 0 126 89" fill="none" xmlns="http://www.w3.org/2000/svg">
<path d="M1 1H125" stroke="#D8D8D8"/>
<path d="M1 22.5H125" stroke="#D8D8D8"/>
<path d="M1 44.5H125" stroke="#D8D8D8"/>
<path d="M1 66.5H125" stroke="#D8D8D8"/>
<path d="M1 88.5H125" stroke="#D8D8D8"/>
<circle cx="29.5" cy="21.5" r="5.5" fill="#12988A"/>
<circle r="5.5" transform="matrix(1 0 0 -1 33.5 81.5)" fill="#56ACA3"/>
<circle cx="43.5" cy="32.5" r="3.5" fill="#12988A"/>
<circle r="3.5" transform="matrix(1 0 0 -1 47.5 70.5)" fill="#56ACA3"/>
<circle r="3.5" transform="matrix(-1 0 0 1 86.5 43.5)" fill="#12988A"/>
<circle cx="90.5" cy="59.5" r="3.5" transform="rotate(-180 90.5 59.5)" fill="#56ACA3"/>
<circle cx="58.5" cy="37.5" r="6.5" fill="#12988A"/>
<circle r="6.5" transform="matrix(1 0 0 -1 62.5 65.5)" fill="#56ACA3"/>
<circle r="6.5" transform="matrix(-1 0 0 1 71.5 48.5)" fill="#12988A"/>
<circle cx="75.5" cy="54.5" r="6.5" transform="rotate(-180 75.5 54.5)" fill="#56ACA3"/>
<circle cx="35.5" cy="32.5" r="2.5" fill="#12988A"/>
<circle r="2.5" transform="matrix(1 0 0 -1 39.5 70.5)" fill="#56ACA3"/>
<circle r="2.5" transform="matrix(-1 0 0 1 94.5 43.5)" fill="#12988A"/>
<circle cx="27.5" cy="39.5" r="4.5" fill="#12988A"/>
<circle r="4.5" transform="matrix(1 0 0 -1 31.5 63.5)" fill="#56ACA3"/>
<circle cx="26.5" cy="54.5" r="6.5" fill="#12988A"/>
<circle r="6.5" transform="matrix(1 0 0 -1 30.5 48.5)" fill="#56ACA3"/>
<circle cx="40" cy="46" r="6" fill="#12988A"/>
<circle r="6" transform="matrix(1 0 0 -1 44 57)" fill="#56ACA3"/>
<circle r="6" transform="matrix(-1 0 0 1 90 57)" fill="#12988A"/>
<circle cx="94" cy="46" r="6" transform="rotate(-180 94 46)" fill="#56ACA3"/>
<circle cx="54" cy="53" r="7" fill="#12988A"/>
<circle r="7" transform="matrix(1 0 0 -1 58 50)" fill="#56ACA3"/>
<circle r="7" transform="matrix(-1 0 0 1 76 64)" fill="#12988A"/>
<circle cx="80" cy="39" r="7" transform="rotate(-180 80 39)" fill="#56ACA3"/>
<path d="M0.5 87.5L125.5 1.5" stroke="#81CCC5" stroke-linecap="round"/>
</svg>
